<?xml version="1.0" encoding="UTF-8"?><svg id="Vrstva_1" xmlns="http://www.w3.org/2000/svg" width="504.88" height="131.71" xmlns:xlink="http://www.w3.org/1999/xlink" viewBox="0 0 504.88 131.71"><defs><clipPath id="clippath"><path d="M424.41,17.38c.6-.35,1.36-.34,2.1-.37,2.39-.03,7.24,0,13.48-.02,18.07.08,45.88-.15,63.15.08,1.57.15,1.55.95,1.61,2.29-.34,13.7.68,91.56-.34,107.69-.37.44-.97.5-1.55.55-1.67.1-5.15.04-9.99.05-10.06,0-24.78,0-36.02,0h-29.43c-3.59-.02-3.55-.2-3.57-3.34V19.6c.04-.81-.07-1.67.51-2.21l.03-.02h.02Z" style="fill:none;"/></clipPath></defs><path d="M22.94,42.24c2.2,3.19,4.94,2.8,8.23,1.61,6.17-2.74,12.26-1.34,18.18,2.86,4.05,2.75,7.96,6.18,8.51,10.15.63,4.81-3.05,11.39-8.17,11.68-2.67.06-5.5-2.2-8.59-3.96-4.99-3.2-11.59-2.17-14.41,3.34-1.94,3.52-2.21,7.9-2.24,11.9-.03,10.34-.23,21.24.07,31.54-.19,4.47,2.25,9.87-.41,13.64-3.57,3.24-9.13,2.76-13.83,2.86-4.43.03-8.07-1.71-8.32-6.36.91-22.03.05-44.03-1.28-66.13-.12-2.41-.52-5.15-.66-7.37-.09-1.77.03-3.47,1.37-4.67,5.01-3.45,15.48-2.26,21.55-.97M6.36,123.86c.85-.46,1.21-7.06-.13-6.54-.52.94-.16,2.47-.26,3.63,0,.79,0,1.51.03,2.05.06.7.14.99.31.89l.05-.04h0ZM8.08,46.7c-.26.52.51,2.24.42,3.17.07,1.43-.09,2.94.59,2.89,1.22-.69,1.46-2.36,1.89-3.65.69-1.87-1.44-2.75-2.84-2.44,0,0-.06.03-.06.03ZM8.99,47.18c.99-.19,2.68.38,3.74.47.55.09-.02.07-1.08.08-.96-.09-3.24.3-2.74-.49l.08-.06ZM9.09,69.49c-.04-1.55.09-3.54,0-5.16-.02,1.34-.05,3.73,0,5.08M11.73,71.45v9.15-9.19.04ZM12.09,116.66s0,2.12,0,3.19c.04.24.04.67.32.7.25-.18.17-.51.13-.92-.12-.78-.32-2.31-.44-2.97h-.01ZM12.87,123.63c-.32.05-.69-.21-.62.38-.04.35.48-.28.62-.35v-.03ZM14.21,110.65c0,1.5.29,8.95,1.59,4.07,2.81-17.19-1.21-34.93-1.01-52.25-.1-5.56.07-12.59,4.59-16.3,2.69-2.44.09-1.94-1.98.07-1.78,1.89-2.28,4.97-2.37,7.68-.34,18.86-1.33,37.69-.84,56.52v.21h.02ZM18.69,121.84c.29-.49-.25-1.91-.22-2.62-.08-.31,0-2.7-.38-2-.25.99-.86,3.07-.28,4.07.17.25.46.68.8.59l.08-.05h0ZM18.29,57.21c-.28,17.27.97,34.5,1.29,51.74.09,2.46.23,2.52.4.04,1-17.19-.98-34.5-1.56-51.77M19.24,122.25c-.02.11-.02.58-.18.89-.12.31-.47.45-.57.62.13-.07,1.18-.08,1.16-.48-.03-.28-.35-1.03-.39-1.06l-.02.02h0ZM21.81,117.04c-.03.68.04,2.57.23,3.21.04-.5-.17-2.65-.23-3.26v.04h0ZM33.28,50.09c-.24-.25-.84-.08-1.24.04-2.13.65-4.09,2.09-5.2,4.04-.97,1.54-1.05,3.03.82,1.05,1.19-1.48,2.3-2.84,3.93-3.69.53-.39,1.62-.73,1.73-1.38l-.03-.05h0ZM31.36,56.27c.09-.03,1.5.25.82-.26-.3-.23-.55-.43-.67-.23-.09.13-.21.36-.2.43l.05.06h0ZM43.46,47.21c-2.95-1.48-7.05-2.84-10.03-1.04,0,.29.7.3,1.03.35,2.84.13,5.75.37,8.54.65M35.37,51.74c.88.95,3.43,1.18,4.7,1.89.34.11,2.22,1.03,1.39.21-.31-.32-.94-.85-1.45-1.39-1.03-1.13-1.81-2.27-3.11-1.98-.56.16-1.51.54-1.55,1.17M45.13,60.48c-1.2-1.68-2.91-3.2-4.81-3.94-1.46-.55-3.26-.86-2.86-.42,1.9,1.43,4.51,2.7,6.49,3.95.84.49,1.27.69,1.21.47l-.02-.06h-.01ZM45.07,55.89c.57.68,1.35,1.53,2.02,2.03-.13-.52-1.45-1.59-2.06-2.03M52.82,55.89c-2.18-1.83-4-4.13-6.24-5.85-1.25-.77-1.8,0-.97,1.13,1.83,2.2,4.37,3.72,7.01,4.8M50.88,58.62c.37,1.94-.14,3.86-.6,5.68-.03.31-.15.76.22.76.78-.16,2.6-3.48,3.31-4.87.71-1.38,1.18-2.71.91-2.83-.13-.05-.22-.02-.37.03-1.1.52-2.32,1.11-3.61,1.28" style="fill:#45235e;"/><path d="M67.92,131.71c-.76-4.75-2.64-10.49.41-14.78,2.15-2.75,7.67-2.87,11.34-5.72,5.9-4.43,7.09-12.9,3.7-19.27-7.29-13.78-15.4-27.34-22.46-41.22-5.57-9.79,6.47-9.5,12.11-5.67,3.36,2.12,5.76,5.74,7.99,9.42,3.54,5.69,6.54,11.74,9.78,17.46,4.5,7.91,6.35-.97,8.38-6.12,1.08-2.9,2.23-5.78,3.39-8.65,1.89-4.6,3.54-9.57,6.96-12.14,3.65-2.93,11.42-3.98,13.71.94,1.09,3.47-1.23,7.93-2.57,11.42-1.17,2.87-2.42,5.73-3.68,8.56-4.09,8.76-7.11,17.94-10.67,26.95-2.82,7.17-5.87,13.61-8.86,20.96-1.62,3.75-2.86,7.8-4.93,11.32-4.66,8.69-15.95,6.13-24.42,6.29M59.16,44.37c.29.26,1.21.92,1.53,1.51.24.29,1.44,2.01,1.31,1.59-.19-.46-.68-1.95-.92-2.56-.28-.63-1.32-.83-1.9-.57v.04h-.02ZM63.23,45.78c-.02-.09.07-1-.08-1.11-.4-.21.04.91.07,1.11h0ZM64.82,48.9c5.62,10.64,11.34,22.08,18.76,31.55-5.28-10.77-11.91-21.72-18.97-31.55M65.09,45.13c-.21.8.58,1.66,1.08,2.54.57.76,1.12,1.72,1.67,2.17-.4-.9-1.08-2.14-1.31-3.19-.22-.95-.75-2-1.38-1.6l-.06.09h0ZM67.96,118.27c2.63.79,6,.22,8.65-.37.49-.18,1.39-.34,1.53-.81-.26-.65-4.21-.11-5.46.08-1.47.23-4.77.75-4.72,1.07v.04h0ZM68.37,63.66c1.38,2.51,3.22,5.63,4.74,8.27-1.6-2.7-3.16-5.52-4.78-8.27M69.25,129.89c-.05.11-.06.62,0,.88.12.44,1.5.29,1.4-.27-.02-.25-.31-.23-.63-.31-.22-.06-.56-.29-.72-.33l-.06.04h.01ZM69.32,126.11c.25.22.67.25,1.18.24.89-.02,1.89.14,2.68-.34.45-.27.49-.62.07-.76-.58-.16-1.83-.06-2.62-.11-.81-.11-1.89.06-1.4.88l.1.09h-.01ZM69.25,123.81c.1.09.34-.05.63-.15.53-.22,1.73-.19,2.12-.21.2-.03-.82-.02-.97,0-.64.21-1.83-.75-1.83.28l.05.09ZM72.04,46.09c2.4,5.9,5.5,12.28,9.83,16.89-2.23-5.84-5.67-12.32-9.83-16.97M80.28,129.97c.93-.32,2.04-.9.3-1.02-1.87.03-3.99.54-5.93.86-1.48.33-2.47.94-2.05,1.14.6.22,1.4,0,2.17-.2,1.74-.5,3.51-.82,5.31-.91M73.72,120.75c.7.34,1.95.72,2.39-.22.26-.48.37-.78-.09-.62-.66.25-1.83.45-2.32.79l.03.05h0ZM77.03,73.37c.07-.11-.06-.38-.41-.81-.77-.95-1.81-2.28-2.6-3.22-.2-.22.13.3.65,1.18.48.78,1.01,1.74,1.4,2.28.22.25.59.7.92.61l.04-.04h0ZM76.25,126.92c2.29,1.36,5.48-1.45,6.62-3.46.74-1.31-1.63.79-2.04.87-1.08.87-5.24.64-4.66,2.5l.08.09h0ZM77.74,78.7c.15.04,1.13.32,1.07.25-.17-.22-1.45-1.51-1.69-1.73-.19-.17-.15,0,0,.4.13.31.26.81.49,1l.13.08h0ZM86.21,92.06c-2.17-3.04-3.75-6.8-6.37-9.33,1.22,3.45,3.86,6.63,6.32,9.38M87,74.23c-2.13-2.54-4.24-5.84-6.14-8.59.05.66,3.18,5.52,4.41,7.73,1.88,2.95,5,8.77,6.66,9.88-.58-3.14-2.91-6.32-4.8-8.86l-.12-.16h-.01ZM84.95,113.04c-.59.87-1.76,2.78-2.27,3.75.38-.52,1.81-2.98,2.3-3.79l-.03.04ZM83.37,83.71c2.1,2.67,3.36,6.26,5.45,8.8-.7-3.24-3.48-6.12-5.45-8.67M85.38,126.42c.08-.03.17-.03.25,0h-.25ZM88.49,107.6c-.49.53-1.28,2.22-1.57,2.85.34-.59,1.3-2.21,1.6-2.88l-.03.03ZM88.53,103.68c-.26-.71-.54.06-.76.55-.2.45-.43.93-.47,1.06-.04.12.06,0,.26-.25.28-.38.77-.87.97-1.26v-.11h0ZM87.28,73.54c0,.18.08.33.21.46,0-.18-.08-.33-.21-.46M89.03,123.1c-.65.02-2.4,4.33-1.44,4.15.43-.38,2.89-3.9,1.56-4.18l-.12.03ZM88.7,119c-.3.35-.73,1.52-.86,1.76-.07.16.08-.05.36-.41.22-.41,1.59-1.76.62-1.42l-.12.07ZM88.8,88.33c.21,1.05,1.2,2.32,1.77.35.27-.77.59-1.74.65-2.39.14-1.06-.62-1.79-.76-1.72-.06.05-.02.13-.02.19.24.7.48,1.75-.22,2.27-.6.5-1.39.7-1.42,1.17v.12h0ZM90.56,116.12c-.17-.09-.81,1.29-.64,1.22.15-.25.51-.87.67-1.2l-.02-.02h0ZM90.39,94.81c.5-.52,1.5-3.09,1.36-4.01-.29.44-.43,1.3-.66,1.97-.2.72-.51,1.36-.71,2.04M93.83,103.47c-.09.1-.34.64-.45.85-.08.17.05,0,.29-.3.29-.39,1.08-1.17.26-.64l-.1.09h0ZM94.54,102.87c.05-.04.42-.49.67-.77.2-.22.15-.26-.14-.26-.38,0-.6-.02-.57.33v.69h.04ZM95.28,78.23c3.59-8.37,6.22-17.59,9.32-26.24.59-1.89,1.68-4.58,1.93-6.26-3.81,8.19-6.77,17.8-9.63,26.56-.49,1.76-1.47,4.4-1.63,5.94M97.01,99.35c-.07-.02-.28-.04-.48-.13-.48-.24-.65-.73-.92-.05-.37.78.1.56.67.42.23-.06.54-.13.76-.21l-.03-.02h0ZM105,67.67c-2.47,6.4-5.5,13-7.4,19.52,3.11-6.08,5.27-12.92,7.48-19.52M98.36,96.64c-.05.15-.04.58-.02.78.03.21.14.03.28-.33.25-.53.3-1.03-.19-.58l-.07.13h0ZM99.66,93.69c.28-.09.4-.48.51-.8.46-1.76,1.04-3.91,1.3-5.7-.02-.57-.71,1.06-.86,1.32-.52,1.41-2.67,4.24-1.04,5.19h.09ZM104.38,62.13c-1.03,2.72-2.33,5.6-3,8.32,1.84-3.52,4.32-10.96,6.1-15.35,1.04-2.83,2.09-5.22,2.11-5.99-1.87,4.08-3.41,9.06-5.29,13.02M103.4,88.79c1.85-3.76,4-8.58,4.1-12.67-1.96,3.32-2.95,9.02-4.1,12.97M104.59,61.76c-.05.18.04.35,0,.54v-.54ZM108.79,45.73c-.32.35-.42.94-.63,1.4-.23.58-.4,1.02-.27.91.32-.4,1.29-1.73,1.76-2.22.46-.61-.46-.4-.71-.21l-.14.12h0ZM117.18,45.16c-2.72,4.06-4.54,9.46-6.14,13.86,2.02-4.11,4.23-8.48,5.98-12.74.11-.32.55-1.35.2-1.16l-.05.04h.01ZM114.01,45.18c-1.02.87-1.37,2.74-1.88,4-.24.73-.34,1.14-.18.93.58-.95,1.56-2.91,2.32-3.95.26-.33.72-1.5-.13-1.06l-.13.08ZM115.12,57.28c-.24.8-1.23,3.22-1.81,4.14.71-1.12,1.53-2.77,1.81-4.13" style="fill:#45235e;"/><path d="M129.48,43.82c.39-5.81-2.69-19.9,3.76-22.52,2.76-1.13,7.08-1.52,9.73-.4,4.33,1.78,1.94,10.36,2.51,14.37.11,3.1-.02,6.22-.15,9.29.02,3.57-.14,6.54,3.27,5.82,1.65-.45,3.5-1.66,5.08-2.58,6.6-4.13,14.07-5.91,21.81-5.08,14.58,1.62,27.7,13.25,30.86,27.69,1.24,5.59.89,11.35.47,17.03-.86,12.37-3.64,26.74-15.09,33.49-10.02,5.35-22.23,6.84-33.32,4.95-4.86-1.08-9.48-.76-14.16.66-4.79,1.29-12.99,2.82-13.95-3.82-1.22-15.23.37-30.77-.08-46.12.02-10.87-.75-21.75-.74-32.58,0,0,0-.2,0-.2ZM131.98,26c-.04.68-.07,3.51.01,4.38.24-1.25.21-3.06,0-4.38M132.91,55.47c.06,7-.17,14.61.97,21.49.39-7,.21-14.33-.72-21.37M133.15,99.31s-.02,1.16.02,1.08c.1-.18.09-.85,0-1.05M134.1,125.8h-.57c-.3.05.96,0,.89,0h-.32ZM136.85,31.1c-.47,7.31-2.12,21.66-.56,27.7.65-2.69.28-5.67.44-8.66-.02-5.07.33-15.44.13-19.09v.05h-.01ZM137.74,124.56c.73-.99-.07-2.85-.2-4.17-.17-.94-.32-1.88-.52-2.75-.11-.48-.17-.47-.18-.06,0,1.81.07,4.57-.58,6.38-.47,1.27.16,1.82,1.37.73l.11-.13ZM136.57,25.21c.01.08.34.68.46.85.11.13.11-.14.21-.41.09-.32.46-.64.19-.64-.21,0-.72.1-.81.14l-.04.06h0ZM139.48,122.21c-.12-2.46-.57-5.03-.95-7.5-.3-1.85-.79-3.55-.79-2.77.37,3,1.16,7.73,1.73,10.32v-.05h.01ZM137.85,24.42c.04-.11.04-.22,0-.33M137.83,46.14c-.05,2.65,0,8.22-.02,11.37.02.79-.08,4.56.41,4.02.25-.86.21-2.2.19-3.24-.19-4.05-.47-10.58-.58-12.15h0ZM139.81,70.95c-.56,3.71-.2,7.63-.17,11.41.05,2.59.57,5.05.89,4.73.04-.03.07-.1.1-.2.43-4.48-.25-10.27-.33-14.64-.12-1.57-.31-2.05-.48-1.39M140.25,95.28c-.91,2.22.28,12.21.52,14.33.09-3.92.09-8.89,0-12.67-.09-1.43-.3-2.07-.49-1.72l-.03.06ZM142.6,24.49c1.4-1.83-.22-1.85-1.07-.53-1.46,1.94-1.35,4.99-1.68,7.5-.1,2.01.19,4.35.43,3.33.33-3.4-.42-7.53,2.2-10.16l.11-.14h.01ZM145.05,114.03c0-1.53-.44-3.68-.59-5.47-.2-2.08,0-4.41-.24-6.49-.22-1.99-.6-2.86-.75-2.07-.24,1.51-.04,3.15.02,4.7.26,3.2-.27,6.81.49,10.01.64,1.83,1.12.69,1.07-.49v-.18h0ZM144.98,118.16c-.86-.87-.56.94-.43,1.5.23.89-.11,1.75-.18,2.61,0,.51.26.93.54.81.48-.12.41-1.47.41-2.09-.03-.89.13-2.05-.26-2.72l-.08-.12h0ZM151.7,57.7c-1.98,1.86-3.71,5.31-5.31,7.7-.85,1.4-1.81,2.81-2.24,4.33-.01.09,0,.15.02.18.99-.41,3.49-5.99,4.66-7.55,1.28-2.04,3.42-4.16,3.79-4.98.28-.53-.06-.46-.81.21l-.12.11h0ZM145.99,73.03c-.31.36-.97,2.27-1.05,3.21-.15,1.09-.18,2.22,0,1.58.3-1.37.99-3.6,1.08-4.83l-.03.03h0ZM145.2,84.68c-.19.6.14,1.64.17,2.3.06.47.1.64.15.41.09-.54.36-2.15.4-2.67.03-.47-.43-.35-.64-.14,0,0-.08.1-.08.1ZM146.07,95.29c.02.42-.36,2.44.57,2.1.11-.07.04-.27-.06-.59-.16-.45-.33-1.22-.49-1.55l-.02.04h0ZM146.73,107.94c1.35,2.07,4.06,4.9,6.17,5.87-1.45-1.39-3.28-2.89-4.54-4.59-.51-.7-3.08-4-1.74-1.45,0,0,.11.17.11.17ZM186,103.29c9.16-8.16,3.86-31.5-4.27-39.12-3.12-2.77-7.67-3.46-11.76-2.95-6.44.75-11.8,4.98-15.54,10.19-5.49,7.64-8.49,20.74-3.78,29.49,2.78,4.58,8.05,6.55,14.22,7.18,6.86.56,16.13-.29,21-4.67,0,0,.13-.12.13-.12ZM149.61,69.9c-.79.47-1.5,1.13-1.46,2.04.02.79.68,1.39,1.51.95,1.11-.49,2.05-2.01,2.96-2.96,1.12-1.22,2.54-2.48,2.54-2.61l-.02-.02c-1.59.97-3.61,1.87-5.34,2.51l-.18.1h-.01ZM167.69,119.1c-4.91-1.05-9.99-.53-14.9-1.25-.89-.08-2.3-.48-2.98-.27,5.51,2.35,11.97,1.64,17.89,1.63M168.02,123.41c-2.72-.2-6.13-.85-8.86-1.05,2.7.78,6.08.97,8.86,1.05M175.81,49.08c-.82-.42-2.15-.38-3.16-.34-4.31.36-8.86,1.46-12.82,3.15-.51.24-.63.37-.26.38.71.02,4.62-.65,6.93-.77,1.59-.15,10.37-.55,9.38-2.38l-.07-.05h0ZM167.1,111.76c1.62.23,3.49.07,5.08-.27,1.23-.26,1.89-.51,1.65-.72-1.07-.52-7.05-.84-9.36-1.46-9.78-2.34-1.06,2,2.39,2.42M167.9,116.08c.49.17,2.48.5,3.09.26-.22-.35-2.75-.57-3.08-.3v.04h-.01ZM177.31,55.23c1.48.43,3.68,1.61,5.27,2.05.31.03.43-.11.25-.35-1.02-1.2-4.11-1.47-5.52-1.71M181.82,111.74c-1.06.94-2.38,1.5-3.54,2.29-.18.2-.04.33.21.37,1.49.14,2.6-1.55,3.29-2.65M178.63,122.72c.56.24,1.51-.22,2.16-.31.46-.14,1.15-.19,1.41-.54.26-.78-1.01-1.11-1.8-.82-.78.2-2.51.63-1.88,1.6l.11.07h0ZM182.89,60.34c2.36.11-2.08-1.92-2.47-1.79-.21-.01-.09.15.3.44.63.42,1.33,1.08,1.99,1.3l.17.04h.01ZM182.54,47.56c-.37-.18-1.86-.6-2.16-.63-.11.02.16.24.47.42.43.27,1.24.36,1.65.24M183.72,51.91c-.12-.04-.67-.04-.72,0-.06.02.7,0,.74,0h-.03.01ZM186.4,49.89c1.97,1.16,3.77,2.71,5.64,3.87-1.07-1.99-3.3-3.6-5.59-3.91M188.51,56.26c-.22-.19-.74-.54-1.07-.7-.35-.19-.46.19-.06.33.37.13.77.29,1.14.4l-.02-.03h0ZM188.54,107.25c.43-.12,3.35-3.18,3.57-3.77-.59.64-3.13,2.82-3.58,3.75M196.78,112.32c-2.13,1.8-4.69,2.93-6.65,4.78-.51.52-.8,1.6.26,1.44,2.81-1.06,4.67-3.85,6.56-6.18M194.05,62.81c-1.15-1.23-2.38-3.91-3.62-4.96-.26-.16-.24.11.14.66.92,1.25,2.67,3.23,3.51,4.34l-.03-.03h0ZM200.36,101.24c-3.77,2.44-7.3,6.04-9.4,9.96,3.52-2.74,7.15-6.36,9.61-9.96M193.08,102.46c.09-.04,1.96-2.71,1.14-2.05-.46.53-.91,1.46-1.17,2.06h.03ZM197.91,109.26c.18.47.6,1.13,1.02.27.21-.39,1.01-1.38.75-1.52-.53-.32-1.56.68-1.76,1.13v.13h0ZM200.98,97.38c-.4-.09-.8-.06-1.19.31-.36.38-.8.96-.59.89.19-.04.88-.45,1.43-.66.63-.23.94-.33.52-.5l-.15-.04h-.02Z" style="fill:#45235e;"/><path d="M243.75,2.48c.84,2.84-1.52,5.96-2.79,8.54-1.24,2.25-2.54,4.48-3.93,6.65-5.41,9.14-12.09,14.38-23,12.67-8.89-1.84,1-13.01,3.04-17.31,2.94-4.78,6.18-10.09,11.48-11.84,3.52-1.23,13.05-2.35,15.15,1.19l.05.11h0ZM235.59,44.73c2.58,8.2,1.65,16.7,1.5,25.13-.05,9.73.37,19.53.87,29.31.13,2.43.27,5.19,1.27,7.33,1.66,3.93,6.63,4.18,9.27,7.41,1.41,1.71,2.09,4.24,1.66,6.41-1.21,5.89-8.54,5.64-13.37,6.3-6.9.48-16.15,2.01-21.93-1.08-3.78-2.04-6.06-7.35-4.43-11.16,1.68-3.7,6.72-4.68,8.22-8.46,1.41-3.35.79-7.4.91-11.01,0-7.6.84-15.28.1-22.82-.36-3.56-.66-7.52-2.42-10.63-1.56-2.83-3.69-5.23-4.98-8.21-3.05-7.36.12-10.78,7.5-10.85,5.19-.09,12.32-.83,15.98,2.9M217.06,123.69c1.01-1.94-.94-3.84-1.5-5.62-.14-.65.48-1.29.68-1.85.04-.15.09-.26-.02-.33-.16-.11-1.28.33-1.67,1.57-.29.96-.13,1.99.03,2.96.09,1.16,1.43,3.54,2.42,3.31l.05-.04h.01ZM219.93,49.73c-1.16,0-3.75,0-4.8,0,1.24-.06,3.41.1,4.8-.24M215.96,53.84c1.2.17,2.78-.12,4.02-.08.3-.04-.18-.13-1.15-.27-1.12-.14-3.19-.55-3.62-.46-.41.25.27.65.57.75l.18.06ZM217.38,27.12c2.85-3.68,5-9.04,5.57-13.77-.02-.17-.08-.27-.23-.18-.31-.65-8.45,17.44-5.42,14.04l.08-.09h0ZM229.88,125.14c-1.01-.33-2.95-.8-3.99-.96-1.27-.18-2.54.39-3.69.85-.47.2-.5.29-.04.31,1.92-.05,5.93.03,7.75-.18l-.03-.02ZM223.16,23.2c2.02-3.65,5.49-8.17,4.07-12.62-.22-.39-.52-.5-.86-.32-1.77,1.19-2.47,6.29-3.07,8.74-.24,1.14-1.7,6.67-.22,4.31l.08-.11ZM224.56,24.49c-.23.3-1.78,2.33-2.01,2.71-.17.32.11.29.27.16.63-.66,1.28-2.13,1.74-2.86h0ZM225.6,19.34s-1.25.44-1.19.46c.05.06,1.07-.38,1.18-.45h.01ZM225.59,23.77c-.24-.38-.57-.13-.88.18-.73.57.65-.05.88-.11v-.07ZM226.4,103.06c.35-1.5-.04-8.5-.22-11.52-.23-2.59-.42-7.01-.96-8.44-.43,2.01.03,7.42.16,10.37.2,2.72.61,8.85,1.01,9.6M226.11,62.71c-.97,3.59.22,7.58.43,11.29.14.85.16,2.45.43,3,.12-.7.05-6.29.07-8.3,0-1.39.15-6.8-.88-6.05l-.04.07h0ZM226.54,110.97c-.21-.08-.75.03-.5.36.22.19.68.02.55-.3l-.05-.06ZM227.49,2.96c-.13.16-.47.79-.56,1.12-.05.15-.02.13.08-.09.16-.33.36-.73.51-1.06l-.03.02h0ZM228.3,24.01c-.52.66-2.16,3.65-.61,1.62.74-1.16,4.9-8.72,3.73-9.4-2.67,1.32-2.52,4.95-2.92,7.65M230.26,43.22c1.39,2.4,3.65,6.24,4.27,9.37,1.46,7.23,1.14,14.72,1.27,22.06-.06,7.17-1.73,14.12-.79,21.17.17,1.06.38,3.24.75,3.61.43-1.21.21-4.52.29-6.27-.09-16.34,3.31-35.6-5.79-49.94h0ZM229.55,115.49c.13.54.9.52,1.4.59.43.05.82.1,1.02,0,.4-.24.15-1.44-.26-1.63-.71-.33-2.37-.28-2.18.91l.02.14h0ZM232.12,2.54c-.19-.09-.53.18-.83.73-.3.64-.71,1.29-.72,1.99.04.78.45,1.95.6,1.69.27-.61.36-1.25.56-1.91.11-.7.72-2,.44-2.46l-.06-.04h0ZM231.39,56.59c.5-1.87-.42-4.09-.59-6-.04-.15-.15-1.08-.27-.85-.09.32-.05,2.42-.05,3.5.03.67-.19,4.17.85,3.45l.06-.1h0ZM232.25,97.73c-.67-6.91-.7-13.94-1.33-20.8-.13-1.24-.21-1.25-.2,0,.16,6.91.63,14,1.53,20.88M235.72,1.48c-1.2,2.39-2.86,4.77-4.35,6.99-.21.35-.44.78-.57,1.09-.1.24-.09.34.02.26.74-.67,2.66-4.3,3.59-5.76.49-.78.97-1.58,1.2-2.12.25-.54.3-.75.15-.52l-.05.07h.01ZM233.74,108.21c-.03.16-.08.86-.23,1.45-.12.71-.6,1.33-.64,1.96.31.5,1.31,0,1.19-.69-.05-.63-.19-2.18-.3-2.76v.04h-.02ZM234.16,11.33c.08,0,.64-.31.95-.5s.21-.24.12-.5c-.09-.24-.12-.47-.34-.23-.26.31-.59.81-.76,1.2,0,0,.03.03.03.03ZM234.9,118.07c-.78.98.2,1.81,1.53,1.77,1.31-.04,2.91.13,4.2-.11.38-.15.07-.52-.05-.77-.65-1.13-1.21-1.54-2.77-1.46-.89.06-2.09-.05-2.79.48l-.11.1h-.01ZM237.51,2.22c.02-.3-.11-.67.29-.64,0,.01-.31-.02-.29.15v.49h0ZM247.72,121.62c-1.83,1-4.62.46-6.07,2.21-.17.29.07.39.66.2,1.58-.61,4.09-1.38,5.65-1.89,1.62-.83.86-.94-.06-.58l-.18.06Z" style="fill:#45235e;"/><path d="M331.27,124.85c-17.69,1.27-35.64,1.19-53.48,1.12-6.5-.23-13.64.35-19.76-1.91-9.61-4.31-5.43-15.01.86-20.47,12.52-11.32,25.01-22.64,37.85-33.52,1.7-1.62,4.12-3.46,4.11-5.68-.84-3.19-8.85-2.26-12.87-2.44-6.64.1-13.27.5-19.9.79-6.18.12-11.55,2.18-14.41-2.85-1.6-3.14-2.2-7.91-1.79-11.13.45-4.4,5.22-5.24,9.14-5.31,6.63-.27,13.34-.82,19.95-.76,9.76.2,20.18-.41,29.86-.47,3.28,0,6.77-.04,10.08-.15,2.89-.06,6.42,0,8.75,1.56,5.07,3.81,3.87,12.11,2.07,17.44-1.88,5.11-6.56,9.2-10.51,13.52-5.48,5.87-10.92,11.57-16.91,17.02-3.05,2.83-6.16,5.61-9.2,8.46-2.15,2.37-11.16,9.24-5.7,8.41,8.98-1.64,18.41-2.94,27.55-2.59,4.62.04,9.37.14,12.4,2.22,5.34,3.76,4.64,11.67,2.33,16.88M304.62,46.51c1.75-.4,2.31-.8,1.43-.93-3.09-.21-7.54.66-10.88,1.13-11.85,2.24-24.32-2-36.17.49-1.71.49-4.18,1.34-1.47,1.3,3.17-.03,6.83-.7,10.14-.83,4.21-.09,8.36-.02,12.56-.04,8.01-.12,16.39.49,24.25-1.08l.15-.03h0ZM262.52,51.59c-.6-.1-3.41-.38-4.19-.45-.2,0-.54,0-.69.12-.9.92,4.57.28,4.87.34h.01ZM281.54,57.38c-6.67.01-13.28.02-19.82-.28-1.16.02-3.12-.16-3.96.19,1.2.52,3.54.48,5.05.6,6.26.2,12.57.07,18.73-.35M258.34,60.33c-.15-.03-.32.04-.26.36-.03.32.21-.22.29-.33l-.02-.03h-.01ZM265.98,115.3c-.07-.75-.99-.88-1.58-.53-1.32.69-3.68,1.98-4.3,2.41.74.02,1.88-.48,2.78-.65.91-.35,2.74-.43,3.08-1.13v-.09h.02ZM260.31,53.86c12.6.68,25.59.92,38.25-.1,6.4-.84,13.84-2.48,20.02-2.39,2.15-.07,2.79-.23.41-.44-2.33-.19-6.6-.58-9.65-.33-4.75.42-8.31,2.29-13.41,2.81-11.81.52-23.73.31-35.65.78M261.06,109.3c1.81-1.05,3.5-2.54,4.81-4.16-1.55,1.21-3.27,2.88-4.65,4.33M263.24,124.43c2.11.04,4.41.24,6.39-.41-2,.1-4.35.39-6.39.29M263.24,111.04c4.76-2.52,7.97-6.58,11.72-10.67,2.08-2.18,4.51-4.5,6.59-6.57,1.08-1.08.98-1.05-.13-.06-6.22,5.37-11.84,11.77-18.06,17.05M266.33,115.46c.37.3.69.64.71,1.07.02.36-.07.67.13.75.27.12,1.07-.11,1.18-.27.09-.12-.07-.26-.34-.41-.58-.31-1.3-.64-1.84-.93M268.34,113.64c.14,0,.64-.21,1.07-.35.43-.2,1.11-.22,1.17-.5-.25-.13-1.16-.36-1.46-.11-.31.22-.83.85-.81.94l.04.03h-.01ZM271.03,117.76c.15-.07,1.32-.37,1.47-.3-.3.07-1.11.24-1.5.32l.03-.02ZM272.13,110.33c2.52-1.29,4.68-4.32,6.87-6.21.87-.85.79-.89-.24-.11-.5.52-9.86,7.06-6.77,6.37l.14-.05h0ZM274.9,115.01c8.31.49,17.19.05,25.29-1.57-.99-.23-3.11.02-4.42.07-7.03.53-14.07,1.04-20.66,1.46M277.83,101.22c-.58.36-1.86,1.51-2.27,1.99.13-.14,3.24-2.41,2.39-2.05l-.12.07h0ZM288.29,102.48c-.28.3-12.86,9.16-9.67,8.08.78-.46,1.66-1.23,2.36-1.89,2.31-2.16,5.32-3.93,7.35-6.48M308.36,116.54c-8.54.29-18.07.58-26.54,1.76,6.28.12,13.49-.16,19.76-.15,2.53-.04,4.8-.66,6.94-1.49M285.66,101.07c8.97-6.38,17.47-12.94,25.15-20.39.77-.82,2.38-2.2,2.44-2.83-1.16.28-3.16,2.03-4.41,2.9-8.18,6.18-15.97,13.08-23.17,20.23M290.07,82.8c5.42-5.16,11.28-10.21,17.32-15.26,1.08-.99,3.07-2.42,3.65-3.41-8.09,4.4-14.97,11.74-21.01,18.67M296.24,85.16c-2.95,4.48,2.18-.44,3.44-1.54,2.07-1.9,4.21-3.75,6.46-5.2.77-.36,6.86-5,3.51-4.38-1.49.53-2.68,1.69-4.07,2.88-3.07,2.85-6.08,5.81-9.41,8.36M300.28,110.45c-.27,0-1.63-.07-2.52.04-.83.11-1.27.34-.56.28.88-.09,2.35-.22,3.11-.31h-.03ZM298.43,58.52c.1.07,4.36.14,3.62-.19-.89-.18-2.8-.03-3.62.17v.02ZM308.98,69.41c-3.02,2.81-7.39,6.06-10.16,9.23,4.04-1.75,7.19-5.69,10.04-9.02M304.74,56.36c.52.05,3.88.02,5.29.02,1.01.08,3.55-.13,2.8-.61-1.28-.44-2.73.02-4.2.1-1.05.14-3.39.3-3.92.47h.03v.02ZM310.32,120.01c1.16.07,2.82-.58,4.47-.96,2.66-.69,5.63-.39,8.27-.95.13-.05.18-.11.06-.18-.92-.47-5.74-.29-7.63-.1-2.26.23-4.46.11-5.91,1.11-.73.51-.37,1.07.58,1.07h.16ZM311.65,63.65l.5-.39c.23-.18.33-.24.14-.23-.45-.11-.51.41-.65.61h.01,0ZM319.1,62.63c-2.14,1.11-3.72,3.33-5.47,4.96-.35.44-.95.81-1.01,1.31.6.09,4.09-2.3,5.16-3.17,1.15-.93,2.51-2.18,2.57-2.88.06-.62-.53-.53-1.08-.3l-.17.08ZM313.15,115.58c1.43.56,3.66-.2,5.26-.3,1.47-.22,2.9-.48,2.42-.55-1.55-.11-3.28-.02-4.86-.05-.86,0-3.62-.1-2.9.85l.08.06h0ZM319.32,122.82c.18.27,2.13.21,2.87.16.89-.07,1.77-.28,1.1-.29-1.16.05-2.96-.15-3.97.09v.03h0ZM320.95,114.43c.44,0,2.07-.36,2.45-.45.06-.13-1.53-.31-1.69-.19-.32.11-.55.35-.76.59v.05ZM323.66,122.64c.72,1.71,3.23,1.55,4.81,1.36.37-.08,1.15-.13,1.2-.51-1.06-.94-2.53-.99-4.25-1.09-.49-.02-1.68-.06-1.74.17l-.02.07h0ZM328.15,111.78c-.63-.33-1.89-.11-2.66-.18-.42,0-.64.05-.54.16.7.41,2.14,1,2.74,1.5.69.45.77-.94.55-1.38l-.09-.11h0ZM328.16,115.68c-.52-.11-2.39.6-3.09.73-.35.12.07.25.9.5,1.94.57,2.83,1.21,2.26-1.16l-.07-.07ZM330.03,45.34c-.62.02-3.71-.18-4.26.3,1.16.04,3.23-.24,4.28-.3h-.03.01ZM328.71,109.09s.09,0,.08,0c-.66.03-2.04.17-2.51.28.41-.01,1.87-.23,2.35-.27h.09,0ZM327.4,60.02h.33c-.11-.06-.22-.06-.33,0M330.24,55.64c.03-.08.03-.77,0-.98-.03-.16-.18.08-.38.31-.23.27-.68.48-.44.57.18.07.66.14.76.14,0,0,.06-.04.06-.04ZM330.22,59.77c-.08-.09-.03-.57-.04-.59,0-.02-.37.33-.3.44l.28.18.05-.03h.01Z" style="fill:#45235e;"/><path d="M393.37,70.91c3.06-2.16-1.3-7.03-3.59-9.12-9.14-8.32-24.64-2.8-34.35,3.52-5.06,3.19-8.24,7.32-13.43,5.21-3.58-1.76-6.83-5.51-6.81-9.64,0-4.87,5.79-9.21,9.87-12.02,16.92-11.89,41.91-10.77,58.58,1.22,9.02,7.31,13.25,18.55,15.51,29.6,2.24,11.02,2.22,22.7,2.8,33.83.06,4.97,4.48,11.62-.86,12.87-4.46.66-14.12,1.09-16.06-4.92-.96-1.89-.52-5.38-2.91-5.95-3.38-.17-8.22,3.32-12.05,4.66-59.46,23.6-75.62-52.89-11.32-49.6,3.5.05,6.59.31,9.32.66,1.75.24,4.15.36,5.21-.26l.09-.05h0ZM347.64,53.12c-1.13.35-3.28,2.28-4.56,3.06-1.06.81-2.41,1.53-3.19,2.58-.21.71,1.52-.01,2.94-.72,1.89-1.05,4.03-2.48,4.95-4.41.12-.3.1-.47-.06-.5h-.08ZM340.77,62.56c.04-.54-.05-.38-.53-.4-.34-.07.43.38.5.46l.03-.06ZM342.27,64.99c1.29-.17,2.36-1.08,3.56-1.78,1.11-.79,2.61-1.61,3.37-2.6-1.48.7-3.02,1.95-4.55,2.7-.75.38-1.53.72-2.02,1.07-.5.33-.67.57-.44.61h.08ZM354.84,80.38c-5.37,3.76-11.5,9.69-12.84,16.48,0,.44.32.1.47-.1.67-.78,2.01-3.47,3.55-5.79,2.01-3.02,4.49-5.74,7.16-8.17.79-.7,5.46-4.88,1.81-2.53l-.14.09v.02ZM344.44,68.77c2.64-.54,4.75-3.13,6.8-4.76.31-.29.68-.64.91-.9.19-.2.23-.29.11-.25-1.25.7-2.53,1.72-3.85,2.48-.66.53-5.33,2.56-4.08,3.41h.1v.02ZM346.96,109.2c-.11-.68-.92-3.36-1.32-3.87-.15-.11-.25.16-.37.58-.52,1.31.76,2.5,1.65,3.29h.04ZM352.54,112.03c-1.45-1.47-5.18-2.02-3.98.84,1.22,1.94,6.74,5.63,8.65,6.22.12.02.04-.05-.03-.11-.64-.54-1.31-1.02-1.99-1.67-1.52-1.35-2.2-3.26-2.78-5.2M352.41,48.74c-1.41.81-3,2.01-4.16,3.26,1.27-1,2.8-2.4,4.24-3.22M349.73,93.58c-.97,3.09-.3,7.64.81,10.77.58,1.3,1.1,1.27,1.1-.08-.17-3.02-1-6.19-.85-9.19.02-.71-.21-3.26-1-1.64,0,0-.06.14-.06.14ZM353.17,78.69c.15-.03,1.12-.55,1.13-.74-.24.14-.86.54-1.17.74h.04ZM355.25,112.3c1.45,3.6,6.59,3.43,9.9,3.56.59-.07,1.99.07,2.2-.39-2.22-1.13-5.22-1.42-7.56-2.61-1.87-.77-4.26-2.21-4.55-.67v.11h0ZM356.73,107.17c.19-.49-.25-2.63-.89-2.83-.09.14.1,1.29.16,1.86.05.55.44.99.67,1.01l.07-.03h-.01ZM365.4,56.26c-3.29,2-6.75,4.19-9.37,6.99-.22.29-.45.49-.39.75.74.31,3.17-1.27,5.73-2.53,1.74-.9,3.5-1.77,5.28-2.59,11.07-4.77,5.67-2.07-1.25-2.43M359.46,90.28c-2.91,7.79.42,4.17,4.16,1.47,6.94-5.38,16.42-6.69,25.07-7.55.76-.09,7.93-.68,5.09-1.22-11.69-1.04-23.58,2.63-34.28,7.3M359.2,109.51c-.22-.37-.78-1.37-1.45-1.4-.28-.05-.37.07-.21.27.26.29,1.25.91,1.65,1.17v-.03h.01ZM365.49,106.92c7.72,1.46,20.01-4.15,26.2-9.1,2.42-1.95,6.1-5.94,2.65-8.49-5.82-3.47-22.18-1.17-29.01,1.55-10.4,4.11-10.23,12.87-.02,15.99l.18.04h0ZM394.87,2.79c.97,2.71-1.29,5.76-2.51,8.24-1.24,2.25-2.53,4.48-3.91,6.64-5.44,9.19-12.06,14.54-23.07,12.9-9.05-1.71.75-12.87,2.8-17.18,2.92-4.79,6.17-10.09,11.5-11.79,3.55-1.19,12.88-2.25,15.14,1.09,0,0,.05.1.05.1ZM361.94,84.39c.09.21.4,1.12.87.81.24-.11.54-.26.53-.35-.09-.19-1.05-.42-1.37-.51l-.03.05ZM364.43,111.02c.89,1.6,12.4,2.73,13.12,1.14-2.73-1.11-7.7,0-10.21-.99-1.01-.29-3.3-.76-2.93-.21l.03.05h-.01ZM395.06,79.82c-7.2-1.86-14.56-2.28-21.79-.45-3.66.9-7.89,2.1-10.74,4.44-.7,1.58,7.92-2.08,9.83-2.54,5.51-1.76,11.51-2.59,17.09-.76,2.5.67,6.12,2.56,8.25,2.21,1.66-.51-1.14-2.09-2.44-3.19M368.82,26.89c2.97-3.68,5.02-8.93,5.6-13.7-.02-.17-.08-.27-.24-.18-.96.76-3,5.91-3.91,7.91-.68,1.51-3.85,8.29-1.54,6.06l.09-.1h0ZM379.73,116.21c-.72-.25-1.72-.1-2.5.1-2.44.7-5.07,1.41-7.54,1.89-.39.08-.71.15-.93.21-.33.09-.43.14-.28.17,1.03.02,13.24-.42,11.35-2.33l-.1-.04ZM371.06,49.63c-.05-.46-.98-.77-1.34-.44-.61.7,1.01.58,1.32.5l.02-.07h0ZM374.53,47.95c2.04-.54,4.83-.23,6.75-1.2.21-.22-.03-.46-.67-.71-1.5-.58-3.6-.72-5.29-.56-1.26.14-2.72.2-3.1,1.38-.1,1.07,1.15,1.23,2.11,1.12l.2-.02h0ZM373.39,49.23v-.29c-.04.1-.04.19,0,.29M374.88,23.2c2.02-3.5,4.9-7.58,4.36-11.91-.13-.66-.44-1.47-1.14-1.12-1.4.79-2.3,5.2-2.74,7.31-.11.88-2.13,8.08-.55,5.83l.08-.11h-.01ZM376.24,24.5c-.5.68-1.44,1.92-1.95,2.68-.27.73.5.08.92-.85.47-.84,1.01-1.77,1.03-1.82h0ZM377.29,19.34s-1.27.44-1.19.47c.07.08,1.06-.36,1.18-.45h.01v-.02ZM377.28,23.77c-.21-.39-.53-.12-.84.18-.21.18-.3.28-.16.24.22-.06.71-.24.99-.35v-.07h.01ZM379.01,106.55c-.44.06-1.82.65-2.16.75-.13.06.14,0,.59-.08.65-.14,1.29-.12,1.56-.62v-.05h.01ZM379.26,2.92c-.13.16-.47.77-.57,1.08-.05.15-.03.13.08-.08.16-.32.36-.7.51-1.02l-.03.02h.01ZM380.06,23.97c-.33.46-1.96,3.22-.75,1.84.57-.75,1.04-1.65,1.49-2.51.76-1.64,3.28-6.47,2.65-7.17-.2-.1-.38.02-.61.16-2.33,1.75-2.79,4.93-2.98,7.68M399.81,95.45c1.21-.96,4.44-4.72.38-1.93-3.4,2.56-6.79,5.36-10.45,7.6-2.97,1.9-6.62,3.9-7.28,4.55-.62.54.55.21,2.75-.82,4.99-2.43,10.23-5.66,14.42-9.24l.17-.15h.01ZM383.55,2.78c-.6-.12-1.56,1.9-1.53,2.67.04.79.46,1.97.61,1.71.27-.61.36-1.24.56-1.89.11-.7.73-1.98.43-2.45l-.06-.04h0ZM387.13,1.84c-1.24,2.36-2.88,4.76-4.36,6.99-.16.34-.74,1.17-.57,1.37.66-.47,2.74-4.4,3.64-5.79.49-.78.98-1.57,1.2-2.11.24-.54.29-.75.12-.53l-.05.07h.02ZM387.69,55.72c-.64.12-6.35-.4-3.64.7,2.84,1.12,9.86,6.26,3.81-.7M387.05,47.34c1.7.56,4.01,1.05,5.88,1.2.76,0-.77-.78-2.34-1.38-1.46-.52-5.55-1.79-6.25-1.31.59.68,1.68,1.04,2.52,1.41l.2.07h-.01ZM385.64,11.49c.08,0,.66-.29.99-.47.32-.18.22-.23.13-.48-.09-.24-.12-.47-.34-.24-.27.31-.61.79-.81,1.16,0,0,.03.03.03.03ZM386.25,108.05c1.38.07,2.72-1.06,3.99-1.73,1.25-.83,2.69-1.71,3.69-2.73-1.19.48-2.53,1.42-3.83,1.99-1.26.65-2.69,1.09-3.71,2.03-.19.19-.25.33-.18.41l.05.03h0ZM389.44,2.66c.02-.06-.07-.34.06-.42l.27-.05s-.37-.01-.34.18v.3h.01ZM393.17,61.77c.81-.95-.8-2.33-1.73-1.88-.16.11.19.45.61.89.31.28.78.93,1.06,1.02l.07-.03h-.01ZM399.56,74.97c.15-.98-.99-2.88-1.47-3.93-.52-1.01-2.07-3.88-2.5-3.98.33,1.3,1.16,2.65,1.69,4.02.62,1.18,1.12,3.35,2.24,3.93l.03-.04h0ZM405.85,123.27c.22-.47.04-1.1-.32-1.32-.4-.2-.66-.65-.7-1.08-.18.22-.15,1.17-.2,1.81-.02.58,0,1.03.28,1.12.34.07.68-.09.87-.38l.08-.15h-.01ZM409.56,84.43c-.13-1.86-.85-4.77-1.65-6.45-.17-.11-.24.22-.18.83.07.85.46,2.02.73,2.99.4,1.46.94,5.25,1.1,2.82M410.87,123.28c-.08-.07-.5-.14-.82-.34-.51-.23-.65-.98-1.08-1.34-.15.24-.08.93-.04,1.23.05.77,1.78.45,1.94.47v-.03h0ZM409.57,91.07c.82,25.71,3.3,24.82-.04,0M414.01,113.09c-.48.54-.48,1.58-.79,2.43-.2.74-.11,1.52.11,2.14.33.83.67.59.8-.18.17-1.19.47-2.9.25-4.03-.05-.13-.12-.41-.29-.38l-.07.03h-.01ZM414.27,124.09c.6.49,3.59.87,2.71-.45-.41-.54-.89-1.53-1.5-1.65-.94-.21-2.14,1.12-1.34,1.98l.12.12h.01Z" style="fill:#45235e;"/><g style="clip-path:url(#clippath);"><path d="M479.89,123.66c-2.33-1.21-4.35-3.15-6-5.27-5.14-6.9-8.94-14.57-15.37-20.27-4.68-4.34-12.39-11.99-12.43,0-.14,5.79.5,11.78,1.28,17.53.3,2.88.6,6.25-1.5,8.43-3.13,2.83-8.51,3.11-12.74,2.81-3.65-.37-6.03-2.78-6.83-6.55-1.23-6.9-.76-14.01-1.72-20.97-.95-6.73-1.14-13.64-.66-20.34.18-13.15-1.58-27.16-1.15-41.82.11-4.69.3-8.51.89-12.33.65-5.03,2.64-6.83,7.05-7.15,3.53-.22,7.57-.62,10.83.9,4.07,2.78,1.98,8.16,2.1,13.47-.14,6.23.33,12.74.96,18.81.27,1.91.48,4.42,1.69,5.8,3.24,2.79,10.46-7.74,13-9.8,4.83-5.18,11.54-5.54,18.61-5.72,6.58-.59,18.15.41,8.66,8.72-3.91,3.24-8.65,5.59-12.6,8.85-8.91,7.1-13.35,14.2-4.31,23.12,4.41,4.66,8.95,9.2,13,14.2,4.75,5.86,8.97,11.59,14.15,17.18,1.98,2.52,9.14,8.5,5.75,11.37-1.77,1.33-6.48,1.24-10.83,1.23-3.96-.04-8.09-.27-11.65-2.11l-.16-.08h-.02ZM429.71,48.18c.16-.16.45-2.31.42-3.36.03-.66-.2-3.61-.33-3.3-.08,1.94-.25,4.92-.11,6.67l.02-.02h0ZM430.84,23.72c.2,6.24.75,12.69,1.83,19.05.11.79,1.17,5.99,1.26,2.84-.32-7.36-1.31-15.01-3.09-22.09M434.73,124.25c.06-.68-.79-1.94-1.05-2.69-.39-.87-.57-.81-.76-.05-.51,2.2-1.21,3.5,1.74,2.81l.06-.07h.01ZM435.47,21.21c-.88-.45-1.66-.46-1.75-.14.02.75,1.14,1.53,1.54,2.28,1.84,2.53,1.17,6.99,1.25,10.25.01.35.06,2.22.35,1.65.39-1.77.23-3.96.27-5.97-.26-2.66.89-6.59-1.52-8l-.13-.07h0ZM434.3,52.87c-.13-1.23.14-2.93-.08-4.21-.53,1.23-.15,2.91.13,4.21M434.68,110.75c0-2.23.4-4.51.27-6.7-.23,2.16-.49,4.47-.31,6.7M434.63,59.48c.11-.05.22-.05.33,0-.04-.11-.04-.22,0-.33l-.33.33ZM435.17,121.38c.38.39,2.83.94,2.84.34,0-.27-.53-.77-.91-1.32-.43-.58-.96-2.09-1.5-.91-.13.54-.6,1.35-.49,1.81l.05.09h0ZM439.48,98.6c-.14-6.84-1.28-13.67-1.52-20.56-.48-5.67-.48-11.97-1.69-17.49-.22-.77-.41-.83-.52-.16-.07.45-.11,1.23-.1,2.25.52,11.04,1.83,22.26,2.26,33.4-.04,2.5,1.2,10.97,1.57,2.75v-.19ZM439.54,118.89c-.93-1.44-.95-3.27-1.48-4.84-.15,1.57.55,3.5,1.44,4.84M439.23,21.63c.03-.13-.04-.28-.36-.23-.32-.03.22.18.33.24l.03-.02h0ZM439.52,40.87c.1,1.72-.28,9.06.2,12.39.32-.83.12-2.04.13-3.21-.1-2.54-.23-7.02-.33-9.18h0ZM440.16,121.55c.17.05.8.05.92,0,.07-.02-.92,0-.95,0h.03ZM441.72,21.03c.02.11.02.22,0,.33.02-.11.02-.22,0-.33M443.79,64.75c1.21.74.94-2.08.84-2.8-.47-3.47-1.47-10.35-1.68-11.62-.04-.22-.09-.41-.1-.09,0,1.97.09,4.2.13,6.38.2,2.42-.25,6.5.76,8.06l.05.06h0ZM444.33,86.22c-1.2,2.73-.77,11.09-1.07,14.95-.05,4.39-.39,9.1.43,13.35.3.61,1.55-5.27,1.79-6.63,1.21-5.09.9-9.98.25-15.31-.17-1.57-.4-3.44-.71-4.87-.23-1.06-.46-1.59-.66-1.5l-.03.02h0ZM448.34,84.53c.09.87,1.02,1.92,1.61,2.7,2.24,2.7,4.92,5.22,7.52,7.67.78.62,1.95,2.04,2.74,2.21-.89-2.03-9.92-13.23-11.85-12.63v.05h-.02ZM466.04,47.7c-5.91,2.73-10.23,8.29-14.26,13.36-.64.76-1.13,1.24-.28.18,4.21-5.07,9.96-8.72,14.74-13.21M455.78,82.82c2.93,4.12,7.21,8.95,10.67,12.7.13.08.14.01.09-.12-.16-.49-1.58-2.61-3.09-4.62-.75-1.06-11.83-15.21-7.78-8.14l.11.17h0ZM455.2,75.56l.33-.29-.33.29ZM459.8,63.48c.18-.21,1.14-1.78.4-1.09-1.09,1.11-4.96,5.13-5,5.22,1.34-1.12,3.34-2.7,4.49-3.99,0,0,.11-.14.11-.14ZM460.01,75.75c-.09-.15-.33-.68-.36-1.1-.05-.36,0-.82-.16-.88-.17-.09-.51.25-.33.57.16.31.69,1.13.86,1.45l-.02-.03h.01ZM461.06,57.23c9.19-7.6,7.84-8.01,0,0M471.93,46.46h-.33v.29l.33-.29ZM476.98,113.71c-.08-.11-.41-.66-.45-.59-.04.04.06.44.17.7.11.27.34.55.5.67.28.21-.11-.54-.17-.68l-.06-.1h.01ZM479.06,48.88c-.81.41-.92,2.01.04,2.43.59.51,3.42-1.61,2.24-2.08-.64-.19-1.5-.53-2.14-.41l-.14.06h0ZM481.57,45.67c-.11-.04-.22-.04-.33,0,.11.05.22.05.33,0M483.81,120.88c.12-.11-.04-.36-.31-.77-.46-.72-1.11-1.74-1.58-2.47-.37-.59-.23-.23.12.75.5,1.01.52,2.72,1.71,2.54l.06-.05h0ZM483.93,46.1c.07-.07.3-.42.39-.6.1-.19-.18-.17-.6-.17s-.7-.02-.57.13c.14.16.49.48.71.66h.07v-.02ZM485.71,107.21c.04.39.74.87,1.3,1.33.51.33,1.5,1.33,1.83,1.39-.41-.46-2.38-3.97-3.13-2.84,0,0,0,.12,0,.12ZM497.66,121.37c-.73-1.26-2.32-2.61-3.58-3.41.74.9,2.56,2.73,3.57,3.43" style="fill:#45235e;"/></g></svg>